<svg xmlns="http://www.w3.org/2000/svg" xmlns:xlink="http://www.w3.org/1999/xlink" preserveAspectRatio="xMidYMid" width="34" height="34" viewBox="0 0 34 34">
  <defs>
    <style>
      .cls-1 {
        fill: #8500ff;
        fill-rule: evenodd;
      }
    </style>
  </defs>
  <path d="M29.750,0.000 L4.250,0.000 C1.913,0.000 0.000,1.913 0.000,4.250 L0.000,29.750 C0.000,32.088 1.913,34.000 4.250,34.000 L17.147,34.000 L17.147,21.809 L13.075,21.809 L13.075,16.498 L17.147,16.498 L17.147,13.837 C17.147,9.736 20.175,6.523 24.041,6.523 L27.794,6.523 L27.794,12.520 L24.437,12.520 C23.558,12.520 23.300,13.025 23.300,13.722 L23.300,16.498 L27.794,16.498 L27.794,21.809 L23.300,21.809 L23.300,34.000 L29.750,34.000 C32.088,34.000 34.000,32.088 34.000,29.750 L34.000,4.250 C34.000,1.913 32.088,0.000 29.750,0.000 Z" class="cls-1"/>
</svg>
