<svg xmlns="http://www.w3.org/2000/svg" xmlns:xlink="http://www.w3.org/1999/xlink" preserveAspectRatio="xMidYMid" width="34" height="34" viewBox="0 0 34 34">
  <defs>
    <style>
      .cls-1 {
        fill: #8500ff;
        fill-rule: evenodd;
      }
    </style>
  </defs>
  <path d="M27.279,17.000 C27.279,22.678 22.676,27.279 17.000,27.279 C11.322,27.279 6.721,22.678 6.721,17.000 C6.721,16.324 6.788,15.663 6.912,15.023 L-0.000,15.023 L-0.000,28.688 C-0.000,31.622 2.377,34.000 5.313,34.000 L28.687,34.000 C31.620,34.000 34.000,31.622 34.000,28.688 L34.000,15.023 L27.087,15.023 C27.212,15.663 27.279,16.324 27.279,17.000 ZM28.687,0.000 L5.313,0.000 C2.377,0.000 -0.000,2.379 -0.000,5.313 L-0.000,11.070 L8.606,11.070 C10.467,8.439 13.532,6.721 17.000,6.721 C20.467,6.721 23.532,8.439 25.393,11.070 L34.000,11.070 L34.000,5.313 C34.000,2.379 31.620,0.000 28.687,0.000 ZM31.284,6.563 C31.284,7.085 30.858,7.512 30.336,7.512 L27.489,7.512 C26.968,7.512 26.540,7.085 26.540,6.563 L26.540,3.716 C26.540,3.194 26.968,2.767 27.489,2.767 L30.336,2.767 C30.858,2.767 31.284,3.194 31.284,3.716 L31.284,6.563 ZM23.326,17.000 C23.326,13.506 20.493,10.674 17.000,10.674 C13.506,10.674 10.674,13.506 10.674,17.000 C10.674,20.494 13.506,23.326 17.000,23.326 C20.493,23.326 23.326,20.494 23.326,17.000 Z" class="cls-1"/>
</svg>
